<svg width="25" height="25" viewBox="0 0 25 25" fill="none" xmlns="http://www.w3.org/2000/svg">
<path d="M25 6.95289V18.0471C25 21.8085 22.032 24.848 18.3029 25V14.0578H21.0807V10.7903H18.2648C18.2268 9.84042 18.1887 8.89058 18.8737 8.16869C19.6728 7.25684 20.7382 7.56079 21.7656 7.71277C21.8037 6.57295 21.8798 5.47112 21.9178 4.33131C19.9391 3.91337 18.0365 3.83739 16.3242 4.9772C14.2314 6.34499 13.8128 8.47264 13.8128 10.8283H11.9863V14.0578H13.8128V24.962H6.96347C3.12024 25 0 21.8845 0 18.0471V6.95289C0 3.1155 3.12024 0 6.96347 0H18.0746C21.8798 0 25 3.1155 25 6.95289Z" fill="white"/>
</svg>
