<svg width="94" height="79" viewBox="0 0 94 79" fill="none" xmlns="http://www.w3.org/2000/svg">
<path d="M39.2857 13.902C40.002 13.6706 40.6777 13.4527 41.3534 13.2348C43.1643 12.6494 44.9752 12.0775 46.7861 11.492C46.9483 11.4375 47.0834 11.4103 47.2591 11.4647C49.7322 12.2681 52.2188 13.0715 54.6919 13.8612C54.7189 13.8748 54.746 13.8884 54.8135 13.902C54.8271 14.0382 54.8406 14.188 54.8541 14.3378C55.0568 17.2244 54.7189 20.0293 53.7054 22.7525C53.4621 23.4197 53.1513 24.0733 52.827 24.7133C52.0972 26.1157 51.0161 27.205 49.6241 27.9539C48.8403 28.376 48.0159 28.7164 47.2186 29.084C47.1105 29.1385 47.0159 29.1385 46.9077 29.084C46.0023 28.7028 45.0968 28.3215 44.2455 27.8177C43.0292 27.0825 42.0697 26.1021 41.3669 24.863C40.6101 23.5423 40.1236 22.1126 39.7723 20.642C39.3398 18.8992 39.1641 17.1291 39.2317 15.3317C39.2452 14.8688 39.2587 14.3922 39.2857 13.902Z" fill="white"/>
<path d="M15.3251 78.9738C13.5007 78.933 11.9195 78.1432 10.7573 76.5365C9.56805 74.8753 9.56805 72.5878 10.7168 70.8994C12.9061 67.7133 17.609 67.5635 19.974 70.6135C21.474 72.547 21.4065 75.1204 19.7983 76.9722C18.6766 78.293 17.2171 78.9466 15.3251 78.9738ZM19.555 73.8814C19.555 72.9963 19.4604 72.4244 19.2712 71.8662C18.7036 70.1914 17.3522 69.1974 15.5683 69.1021C13.9602 69.0204 12.5006 69.9055 11.8249 71.4713C11.1357 73.078 11.1492 74.6983 11.9871 76.2506C12.7169 77.5986 13.8791 78.2794 15.4062 78.293C16.9603 78.3066 18.136 77.6394 18.9199 76.305C19.3793 75.5017 19.5685 74.6166 19.555 73.8814Z" fill="white"/>
<path d="M45.8267 57.4465C45.3942 57.4465 44.9618 57.4465 44.5023 57.4465C44.5023 57.2151 44.5023 57.0108 44.5023 56.793C45.4483 56.793 46.3672 56.793 47.3132 56.793C47.3132 58.6175 47.3132 60.4421 47.3132 62.2803C46.8402 62.2803 46.3807 62.2803 45.8807 62.2803C45.8672 62.0624 45.8537 61.8582 45.8402 61.6131C45.7185 61.6675 45.6104 61.722 45.5023 61.7629C43.2319 62.8658 40.1777 62.5526 38.1641 60.4966C36.2992 58.5903 36.2856 55.6492 38.1236 53.743C38.7317 53.1166 39.4209 52.6128 40.2183 52.2996C42.3535 51.4691 44.3806 51.6869 46.3132 52.926C46.3943 52.9805 46.4753 53.0349 46.5429 53.103C46.5699 53.1166 46.5835 53.1438 46.624 53.1983C46.3807 53.4162 46.1375 53.6204 45.8942 53.8383C45.8131 53.7702 45.7591 53.7293 45.705 53.6749C44.9482 52.9396 44.0428 52.5584 43.0022 52.5175C42.4346 52.4903 41.8805 52.5175 41.34 52.6945C39.7723 53.2119 38.8263 54.3012 38.4614 55.8943C38.2317 56.9155 38.2722 57.9231 38.6371 58.9171C39.2317 60.5783 40.6778 61.6267 42.4346 61.6948C43.2184 61.722 43.9617 61.6267 44.678 61.2863C45.0699 61.0957 45.4212 60.8506 45.7185 60.5238C45.7861 60.4557 45.8402 60.3332 45.8537 60.2515C45.8672 59.3528 45.8537 58.4678 45.8537 57.5691C45.8672 57.5419 45.8537 57.5146 45.8267 57.4465Z" fill="white"/>
<path d="M33.0827 59.6523C33.0827 57.1333 33.0827 54.6279 33.0827 52.0817C33.3125 52.0817 33.5422 52.0817 33.772 52.0817C33.772 55.4585 33.772 58.8081 33.772 62.1849C33.4341 62.253 33.1909 62.2121 32.9341 61.9398C30.5421 59.3391 28.1366 56.7384 25.731 54.1514C25.6635 54.0833 25.5959 54.0152 25.4743 53.9063C25.4743 56.7112 25.4743 59.448 25.4743 62.1985C25.231 62.1985 25.0148 62.1985 24.785 62.1985C24.785 58.8217 24.785 55.4721 24.785 52.0681C25.1364 52.0681 25.4743 52.0545 25.8121 52.0817C25.9067 52.0953 26.0148 52.2043 26.0824 52.286C27.2041 53.4842 28.3122 54.6824 29.4339 55.8806C30.5556 57.0788 31.6638 58.2771 32.7854 59.4753C32.853 59.557 32.9341 59.6251 33.0017 59.6931C33.0422 59.6659 33.0692 59.6523 33.0827 59.6523Z" fill="white"/>
<path d="M80.3283 57.4603C79.9093 57.4603 79.4769 57.4603 79.0309 57.4603C79.0309 57.2289 79.0309 57.0246 79.0309 56.7795C79.9499 56.7659 80.8688 56.7795 81.8013 56.7795C81.8013 58.6586 81.8013 60.4831 81.8013 62.3485C81.3283 62.3485 80.8688 62.3485 80.3823 62.3485C80.3823 62.1171 80.3823 61.8992 80.3823 61.6133C80.2202 61.695 80.1121 61.7358 80.0039 61.7903C77.7606 62.8796 74.7604 62.58 72.7874 60.5512C70.8954 58.6041 70.8548 55.7311 72.7333 53.7704C74.1388 52.2862 75.8956 51.7007 77.9092 51.8913C78.9904 51.9866 79.9634 52.3679 80.8553 52.9806C80.9499 53.0487 81.0445 53.1168 81.1797 53.2257C80.9229 53.4572 80.6796 53.6614 80.4364 53.8793C80.3553 53.7976 80.2742 53.7295 80.2067 53.6751C79.4769 52.9806 78.612 52.613 77.6119 52.5585C76.5713 52.4904 75.6118 52.6947 74.7604 53.3074C73.7469 54.0427 73.1928 55.0503 73.0036 56.2757C72.8549 57.2561 72.9225 58.2092 73.3144 59.1215C74.0172 60.7554 75.2605 61.6269 77.0308 61.7086C77.8282 61.7494 78.612 61.6405 79.3147 61.232C79.6526 61.0414 79.9499 60.7827 80.2472 60.5376C80.3148 60.4831 80.3823 60.3606 80.3823 60.2653C80.3958 59.3666 80.3823 58.4815 80.3823 57.5829C80.3553 57.542 80.3418 57.5148 80.3283 57.4603Z" fill="white"/>
<path d="M65.6655 78.9601C64.0978 78.9193 62.5167 78.007 61.4491 76.2641C60.3409 74.4396 60.422 71.5802 62.6248 69.7148C65.2736 67.4681 69.2738 68.217 70.9495 71.2806C72.2064 73.5954 71.4766 76.482 69.2332 78.0206C68.2872 78.6606 67.2737 78.9737 65.6655 78.9601ZM62.1923 73.786C62.1788 74.8344 62.4626 75.8829 63.1383 76.8088C64.5168 78.6878 67.0169 78.6197 68.3548 77.6257C69.044 77.1083 69.517 76.4275 69.8008 75.6242C70.1387 74.6574 70.1927 73.6634 70.0171 72.6558C69.8954 71.9206 69.6251 71.2534 69.1927 70.6543C67.7196 68.5846 64.3411 68.5302 62.9221 70.9402C62.4086 71.7844 62.1923 72.7103 62.1923 73.786Z" fill="white"/>
<path d="M83.2879 78.7559C82.95 78.8512 82.7203 78.7559 82.4905 78.4972C80.2472 75.9237 77.9903 73.3503 75.747 70.7768C75.6659 70.6951 75.5983 70.5998 75.4496 70.5453C75.4496 73.2822 75.4496 76.019 75.4496 78.7695C75.2199 78.7695 75.0172 78.7695 74.801 78.7695C74.801 75.3927 74.801 72.0295 74.801 68.6255C75.1253 68.6255 75.4361 68.6119 75.7334 68.6391C75.828 68.6527 75.9362 68.748 76.0037 68.8297C76.8146 69.742 77.6119 70.6543 78.4228 71.5666C79.7201 73.0371 81.0175 74.5076 82.3148 75.9782C82.3959 76.0735 82.477 76.1552 82.5446 76.2369C82.5716 76.2233 82.5851 76.2233 82.5851 76.2097C82.5986 76.2097 82.5986 76.1961 82.5986 76.1824C82.5986 76.1552 82.6122 76.1416 82.6122 76.1144C82.6122 73.6498 82.6257 71.1717 82.6257 68.7072C82.6257 68.6936 82.6257 68.6799 82.6392 68.6527C82.8419 68.6527 83.0446 68.6527 83.2744 68.6527C83.2879 72.0295 83.2879 75.3927 83.2879 78.7559Z" fill="white"/>
<path d="M42.0021 34.2991C42.0021 33.9995 42.0021 33.7544 42.0021 33.4821C43.2319 33.4276 44.4346 33.3732 45.6374 33.3187C45.6374 33.3051 45.6509 33.2779 45.6509 33.2643C45.5968 33.237 45.5293 33.1962 45.4752 33.1826C44.8806 32.9783 44.286 32.8013 43.6913 32.5834C42.5291 32.1613 41.421 31.6167 40.3804 30.9359C40.2587 30.8542 40.1371 30.7861 40.0155 30.7044C39.9209 30.7589 39.8398 30.8134 39.7452 30.8542C39.1371 31.1946 38.5019 31.4533 37.7856 31.4261C37.0829 31.4125 36.5288 31.0993 36.0829 30.541C36.0558 30.5138 36.0423 30.4729 36.0018 30.4049C37.1099 29.9147 38.2181 29.6287 39.3938 30.2006C39.3533 30.1325 39.3127 30.0645 39.2587 30.01C38.9884 29.6832 38.7452 29.3428 38.583 28.9343C38.3262 28.2671 38.3262 27.5999 38.7046 26.9055C39.1911 27.4229 39.583 27.954 39.8668 28.5667C40.1506 29.193 40.1777 29.8466 40.0695 30.5138C40.1101 30.541 40.1236 30.5683 40.1506 30.5819C41.6777 31.3171 43.2048 32.066 44.8265 32.5834C45.4752 32.7877 46.1374 32.9375 46.7996 33.0872C46.9483 33.1281 47.1239 33.1145 47.2726 33.0872C48.5159 32.8694 49.7052 32.4745 50.8539 31.9843C51.8944 31.535 52.9215 31.0584 53.9891 30.5819C53.6648 29.0841 54.3811 27.9948 55.3271 26.9327C55.6784 27.5182 55.719 28.0901 55.5433 28.6892C55.3811 29.2747 55.0162 29.7377 54.6513 30.2279C55.2054 29.9555 55.7865 29.8602 56.3812 29.9283C56.9488 29.9964 57.4758 30.1598 58.0164 30.4185C57.9623 30.5002 57.9353 30.5819 57.8812 30.6363C57.2731 31.3308 56.5163 31.5622 55.6379 31.3852C55.0568 31.2763 54.5297 31.0176 54.0162 30.6908C53.1513 31.2627 52.2593 31.8073 51.2998 32.1886C50.3403 32.5698 49.3673 32.9102 48.3402 33.2915C49.597 33.4004 50.7998 33.4276 52.0161 33.4685C52.0161 33.7544 52.0161 33.9995 52.0161 34.2855C51.8945 34.2855 51.7863 34.2855 51.6782 34.2855C50.2052 34.2991 48.7592 34.0404 47.3267 33.6727C47.1104 33.6183 46.9077 33.6183 46.6915 33.6727C45.259 34.0268 43.813 34.2855 42.3399 34.2855C42.2318 34.2991 42.1237 34.2991 42.0021 34.2991Z" fill="white"/>
<path d="M93.5587 69.8781C93.3695 70.0551 93.2208 70.1913 93.0451 70.3411C92.9505 70.2594 92.8694 70.1913 92.8019 70.1232C91.6667 69.1156 90.3693 68.8705 88.9368 69.279C88.6665 69.3607 88.3962 69.5105 88.1665 69.6875C87.3962 70.2594 87.5989 71.2942 88.1124 71.7435C88.4368 72.0159 88.7882 72.2473 89.1936 72.3971C89.7206 72.6014 90.2747 72.7784 90.8018 72.9962C91.3423 73.2141 91.8829 73.4319 92.4235 73.6634C92.6262 73.7587 92.8289 73.8813 93.0046 74.0174C94.0992 74.8208 94.3154 76.196 93.5316 77.2989C93.1532 77.83 92.6802 78.2248 92.0856 78.4835C90.5585 79.1507 89.0314 79.1779 87.5043 78.4971C86.9772 78.2657 86.5313 77.9116 86.1259 77.4487C86.3015 77.2853 86.4502 77.1491 86.5989 76.9994C86.8151 77.19 87.0043 77.367 87.207 77.5304C87.8557 78.0206 88.5989 78.2112 89.3828 78.2793C89.9233 78.3201 90.4639 78.2929 90.991 78.1567C91.4369 78.0478 91.8424 77.8436 92.1667 77.5032C92.5856 77.0674 92.7613 76.55 92.6262 75.9509C92.5586 75.6786 92.437 75.4335 92.2072 75.2701C91.9234 75.0659 91.6261 74.848 91.3018 74.6982C90.7342 74.4531 90.1531 74.2625 89.5855 74.031C89.0449 73.8132 88.5044 73.6089 87.9773 73.3639C87.68 73.2277 87.3962 73.0371 87.1394 72.8192C86.0988 71.9205 86.0718 70.3955 87.0718 69.456C87.6124 68.9386 88.2746 68.6663 89.0044 68.5165C90.4639 68.2306 91.8018 68.4757 92.9911 69.3879C93.1803 69.5241 93.3559 69.7011 93.5587 69.8781Z" fill="white"/>
<path d="M0 77.4351C0.175684 77.2717 0.32434 77.1356 0.472996 76.9994C0.513539 77.0267 0.540567 77.0267 0.567596 77.0539C1.29736 77.8709 2.25687 78.1976 3.31097 78.2793C3.83803 78.3202 4.36508 78.293 4.89213 78.1568C5.27053 78.0615 5.6219 77.8845 5.93273 77.6394C6.25707 77.3671 6.45978 77.0403 6.54086 76.6318C6.63546 76.0871 6.51384 75.597 6.08138 75.2566C5.8111 75.0387 5.51379 74.8481 5.20296 74.7119C4.63536 74.4668 4.05425 74.2762 3.48666 74.0447C2.95961 73.8405 2.41904 73.6226 1.9055 73.3911C1.6217 73.255 1.35142 73.0916 1.10816 72.8873C-0.0405426 71.9478 -0.0540567 70.3411 1.08113 69.3744C1.60819 68.9251 2.24335 68.6663 2.91906 68.5302C4.36508 68.2442 5.68947 68.4893 6.87872 69.388C7.08143 69.5378 7.25712 69.7148 7.45983 69.8918C7.27063 70.0552 7.12197 70.205 6.9598 70.3411C6.70303 70.1369 6.47329 69.9463 6.23004 69.7693C5.18945 69.0476 4.05425 68.9523 2.85149 69.2791C2.54067 69.3608 2.27038 69.5242 2.02713 69.7284C1.31088 70.3139 1.51359 71.2943 1.97307 71.7164C2.31093 72.0159 2.67581 72.2474 3.09475 72.4108C3.56774 72.6014 4.05425 72.7512 4.52725 72.9418C5.12187 73.1733 5.7165 73.4048 6.29761 73.6635C6.54086 73.7724 6.77061 73.9222 6.98683 74.0856C7.97337 74.8481 8.17608 76.1552 7.48686 77.2037C7.02737 77.9117 6.36518 78.3883 5.58136 78.6606C4.21642 79.1235 2.85149 79.1372 1.50007 78.5517C0.932479 78.293 0.459482 77.9253 0 77.4351Z" fill="white"/>
<path d="M12.7979 62.1986C12.5817 62.1986 12.3925 62.1986 12.1627 62.1986C12.1897 62.1033 12.2033 62.0353 12.2303 61.9536C13.6223 58.7265 15.0142 55.5131 16.4062 52.2861C16.4873 52.1091 16.5683 52.0274 16.7711 52.041C16.9603 52.0546 17.163 52.041 17.3657 52.041C18.8252 55.4178 20.2847 58.781 21.7443 62.1714C21.2983 62.2259 20.8794 62.185 20.4469 62.1986C20.3929 62.0897 20.3388 61.9808 20.2847 61.8719C19.8388 60.8779 19.3928 59.8975 18.9604 58.8899C18.8658 58.6857 18.7576 58.604 18.5279 58.604C17.2305 58.6176 15.9332 58.604 14.6358 58.604C14.5412 58.604 14.4466 58.604 14.325 58.604C13.825 59.8294 13.3114 61.014 12.7979 62.1986ZM16.5548 53.5252C15.9061 55.0366 15.2845 56.4799 14.6493 57.9232C15.1494 57.9913 18.2576 57.9776 18.5144 57.896C17.8792 56.4526 17.2305 55.0229 16.5548 53.5252Z" fill="white"/>
<path d="M32.961 68.6254C33.38 68.6254 33.7584 68.6254 34.1908 68.6254C34.1908 68.7479 34.2044 68.8705 34.2044 68.993C34.2044 70.9946 34.2044 72.9962 34.2044 74.9977C34.2044 75.3518 34.2314 75.7194 34.3125 76.0598C34.5557 77.1355 35.2314 77.8435 36.2855 78.1294C37.0829 78.3473 37.8802 78.3337 38.637 77.9797C39.8533 77.435 40.5425 76.4955 40.5425 75.1339C40.556 73.0915 40.5425 71.0627 40.5425 69.0202C40.5425 68.8841 40.5425 68.7615 40.5425 68.5981C40.7722 68.5981 40.975 68.5981 41.2182 68.5981C41.2182 68.7207 41.2182 68.816 41.2182 68.9249C41.2182 70.9401 41.2182 72.9553 41.2182 74.9705C41.2182 75.4471 41.1777 75.91 41.029 76.3593C40.6236 77.5576 39.7992 78.3065 38.6235 78.6877C37.6099 79.0145 36.5828 79.0281 35.5558 78.7422C33.9611 78.3065 33.0016 77.0265 32.9475 75.3245C32.934 74.8616 32.9475 74.4122 32.9475 73.9493C32.9475 72.2881 32.9475 70.6133 32.9475 68.9522C32.961 68.8841 32.961 68.7615 32.961 68.6254Z" fill="white"/>
<path d="M64.4221 52.0954C64.4491 52.0818 64.4626 52.0818 64.4761 52.0818C65.2194 52.0137 65.2194 52.0137 65.5167 52.6945C66.8141 55.7445 68.1114 58.7945 69.3953 61.8445C69.4358 61.9535 69.4764 62.0624 69.5304 62.1986C69.0845 62.1986 68.679 62.1986 68.2466 62.1986C67.733 61.0276 67.206 59.843 66.6789 58.6584C65.2059 58.6584 63.7464 58.6584 62.2598 58.6584C61.7598 59.8293 61.2462 61.014 60.7462 62.2122C60.5435 62.2122 60.3543 62.2122 60.1651 62.2122C60.1786 61.9535 64.0166 52.8579 64.4221 52.0954ZM64.4356 53.5251C63.7869 55.0228 63.1788 56.4662 62.5706 57.9367C63.8545 57.9367 65.0978 57.9367 66.3816 57.9367C65.7329 56.4662 65.0978 55.0228 64.4356 53.5251Z" fill="white"/>
<path d="M86.1935 61.545C88.0855 61.545 89.9369 61.545 91.8019 61.545C91.8019 61.7764 91.8019 61.9671 91.8019 62.1577C91.5586 62.2258 85.8692 62.2666 85.0718 62.1985C85.0583 62.1849 85.0583 62.1849 85.0448 62.1713C85.0313 62.1577 85.0313 62.1577 85.0313 62.1441C85.0178 62.0896 85.0178 62.0351 85.0178 61.9807C85.0178 58.7128 85.0178 55.4449 85.0178 52.177C85.0178 52.1498 85.0313 52.1226 85.0448 52.0681C87.2341 52.0681 89.4099 52.0681 91.6127 52.0681C91.6127 52.286 91.6127 52.4766 91.6127 52.7081C91.2613 52.7217 90.9099 52.7081 90.5586 52.7217C90.1937 52.7217 89.8288 52.7217 89.4504 52.7217C89.099 52.7217 88.7342 52.7217 88.3828 52.7217C88.0179 52.7217 87.653 52.7217 87.2746 52.7217C86.9233 52.7217 86.5719 52.7217 86.1935 52.7217C86.1935 54.0833 86.1935 55.4177 86.1935 56.7793C87.8152 56.7793 89.4234 56.7793 91.0451 56.7793C91.0451 57.0108 91.0451 57.215 91.0451 57.4601C89.4234 57.4601 87.8152 57.4601 86.18 57.4601C86.1935 58.8353 86.1935 60.1697 86.1935 61.545Z" fill="white"/>
<path d="M57.2597 52.041C57.5029 52.041 57.6786 52.041 57.8813 52.041C57.8948 52.1499 57.8948 52.2453 57.8948 52.3406C57.8948 54.3966 57.8948 56.4526 57.8948 58.5087C57.8948 58.9716 57.8408 59.421 57.6921 59.8567C57.2867 61.0549 56.4488 61.831 55.2596 62.185C54.3406 62.471 53.4081 62.471 52.4757 62.2123C51.0161 61.8038 50.0566 60.6328 49.935 59.0942C49.9215 58.8491 49.908 58.5904 49.908 58.3453C49.908 56.3709 49.908 54.4102 49.908 52.4359C49.908 52.3133 49.908 52.1772 49.908 52.041C50.3269 52.041 50.6918 52.041 51.1107 52.041C51.1107 52.1908 51.1107 52.3133 51.1107 52.4359C51.1107 54.4375 51.1107 56.439 51.1107 58.4406C51.1107 58.7674 51.1377 59.0942 51.1918 59.4073C51.4351 60.6192 52.2189 61.4089 53.4352 61.6268C54.3001 61.7902 55.1109 61.654 55.8542 61.1502C56.8002 60.5103 57.2326 59.598 57.2326 58.4542C57.2326 57.1607 57.2326 55.8671 57.2326 54.5736C57.2326 53.8383 57.2326 53.1167 57.2326 52.3814C57.2597 52.2997 57.2597 52.1772 57.2597 52.041Z" fill="white"/>
<path d="M48.4889 4.35717C48.7727 5.25583 49.07 6.14088 49.3538 7.02593C49.3403 7.03955 49.3268 7.05316 49.2997 7.05316C48.5565 6.50852 47.8267 5.96387 47.0564 5.40561C46.3131 5.95025 45.5563 6.50852 44.813 7.05316C44.7995 7.03955 44.7725 7.03955 44.759 7.02593C45.0428 6.14088 45.3266 5.26945 45.6239 4.35717C44.8806 3.81252 44.1373 3.26787 43.394 2.72323C43.4076 2.70961 43.4076 2.68238 43.4211 2.66876C44.3265 2.66876 45.2455 2.66876 46.178 2.66876C46.4753 1.7701 46.7591 0.885049 47.0429 0C47.0564 0 47.0834 0 47.0969 0C47.3807 0.885049 47.6645 1.75648 47.9618 2.65515C48.8943 2.65515 49.8133 2.65515 50.7187 2.65515C50.7322 2.68238 50.7322 2.696 50.7458 2.72323C50.3944 3.00917 50.016 3.26787 49.6511 3.5402C49.2592 3.7989 48.8808 4.07123 48.4889 4.35717Z" fill="white"/>
<path d="M48.3403 69.3198C48.3403 72.506 48.3403 75.6377 48.3403 78.783C47.9078 78.783 47.5159 78.783 47.0835 78.783C47.0835 75.6377 47.0835 72.4923 47.0835 69.3334C45.8672 69.3334 44.6914 69.3334 43.5022 69.3334C43.5022 69.0883 43.5022 68.8841 43.5022 68.6526C46.3131 68.6526 49.1106 68.6526 51.935 68.6526C51.935 68.8568 51.935 69.0611 51.935 69.3062C51.6512 69.347 51.3539 69.3198 51.0566 69.3198C50.7593 69.3198 50.4755 69.3198 50.1782 69.3198C49.8809 69.3198 49.5701 69.3198 49.2728 69.3198C48.9754 69.3198 48.6916 69.3198 48.3403 69.3198Z" fill="white"/>
<path d="M30.7853 78.1022C30.7853 78.3609 30.7853 78.5651 30.7853 78.783C28.5825 78.783 26.3932 78.783 24.2039 78.783C24.1363 78.5379 24.1228 69.0338 24.1904 68.6526C24.5417 68.6526 24.8931 68.6526 25.285 68.6526C25.312 69.0883 25.2985 69.524 25.2985 69.9734C25.2985 70.4363 25.2985 70.8856 25.2985 71.3486C25.2985 71.7979 25.2985 72.2472 25.2985 72.683C25.2985 73.1323 25.2985 73.5816 25.2985 74.0173C25.2985 74.4531 25.2985 74.916 25.2985 75.3517C25.2985 75.8147 25.2985 76.264 25.2985 76.727C25.2985 77.1763 25.2985 77.612 25.2985 78.1022C27.1229 78.1022 28.9338 78.1022 30.7853 78.1022Z" fill="white"/>
<path d="M4.27048 52.0818C4.62185 52.0818 4.98673 52.0818 5.37864 52.0818C5.37864 53.6749 5.37864 55.2271 5.37864 56.793C5.37864 58.3588 5.37864 59.9247 5.37864 61.5314C7.21657 61.5314 9.04099 61.5314 10.8789 61.5314C10.8789 61.7629 10.8789 61.9671 10.8789 62.1986C8.6761 62.1986 6.47329 62.1986 4.27048 62.1986C4.21642 61.9671 4.20291 52.4494 4.27048 52.0818Z" fill="white"/>
<path d="M56.8541 78.783C56.4352 78.783 56.0433 78.783 55.6514 78.783C55.5838 78.5515 55.5568 69.1564 55.6243 68.6526C56.0298 68.6526 56.4217 68.6526 56.8541 68.6526C56.8541 72.0158 56.8541 75.379 56.8541 78.783Z" fill="white"/>
<path d="M37.2586 25.5032C37.7316 26.2384 38.0829 26.9465 38.1911 27.7635C38.2586 28.2672 38.164 28.7574 37.9748 29.234C37.8937 29.4382 37.7586 29.5472 37.5694 29.6289C37.191 29.765 36.8126 29.7514 36.4207 29.6425C36.2315 29.588 36.0558 29.5199 35.8801 29.4246C35.1909 29.057 34.6503 28.526 34.1233 27.8724C34.299 27.8315 34.4071 27.7907 34.5287 27.7771C35.1098 27.709 35.6504 27.8179 36.1504 28.1175C36.5018 28.3217 36.8261 28.5804 37.164 28.8119C37.2451 28.8664 37.3126 28.9344 37.4208 28.9753C37.3802 28.8936 37.3397 28.8119 37.2856 28.7302C37.0153 28.2673 36.7856 27.7907 36.7315 27.246C36.664 26.6061 36.8261 26.0478 37.2586 25.5032Z" fill="white"/>
<path d="M56.5433 28.9888C56.9893 28.6756 57.3677 28.4033 57.7731 28.1446C58.2867 27.8314 58.8543 27.6952 59.4489 27.7633C59.5705 27.7769 59.6921 27.8178 59.8273 27.845C59.1516 28.7845 58.3542 29.5062 57.2055 29.7104C57.1244 29.724 57.0298 29.724 56.9488 29.724C56.3271 29.7104 56.0703 29.5062 55.9082 28.9071C55.746 28.308 55.7595 27.7089 55.9487 27.1097C56.1244 26.5515 56.3812 26.0477 56.719 25.5303C56.7866 25.5984 56.8406 25.6392 56.8812 25.6937C57.3001 26.3064 57.3677 26.9736 57.165 27.6544C57.0569 28.0084 56.8812 28.3352 56.719 28.662C56.692 28.7709 56.6244 28.8526 56.5433 28.9888Z" fill="white"/>
<path d="M33.0421 24.8221C34.2989 24.863 34.9882 25.6799 35.6639 26.6194C35.5828 26.2246 35.4882 25.8978 35.4612 25.571C35.3801 24.8221 35.6098 24.1958 36.2315 23.7464C36.272 23.7192 36.3261 23.692 36.4071 23.6511C36.7045 24.4953 36.9072 25.3395 36.6369 26.211C36.5828 26.4016 36.4747 26.5922 36.3801 26.7692C36.0693 27.273 35.7855 27.3956 35.2044 27.2322C34.88 27.1369 34.5827 26.9735 34.326 26.7556C33.8259 26.3471 33.2719 25.5165 33.0421 24.8221Z" fill="white"/>
<path d="M57.638 23.6377C58.1516 23.9373 58.4353 24.373 58.5435 24.9176C58.6516 25.4623 58.5164 25.9661 58.4083 26.5107C58.4489 26.4699 58.5029 26.4154 58.5435 26.3745C58.8002 26.0886 59.0435 25.7754 59.3138 25.5031C59.6651 25.1627 60.0841 24.9585 60.5706 24.8631C60.6922 24.8359 60.8274 24.8495 60.976 24.8359C60.9625 24.904 60.949 24.9585 60.9355 24.9857C60.6922 25.5303 60.3949 26.0614 59.976 26.4835C59.7462 26.7149 59.4759 26.892 59.2057 27.069C59.0705 27.1643 58.8948 27.2051 58.7191 27.246C58.1786 27.3549 57.9624 27.2596 57.665 26.783C57.4083 26.3745 57.2731 25.9388 57.2731 25.4623C57.2596 24.8495 57.4083 24.2504 57.638 23.6377Z" fill="white"/>
<path d="M53.5838 9.16368C53.7459 8.6735 53.8946 8.18332 54.0567 7.6659C53.6243 7.35273 53.2054 7.03956 52.7999 6.74001C52.7999 6.71277 52.7999 6.69916 52.8134 6.67193C53.0702 6.67193 53.327 6.65831 53.5973 6.65831C53.854 6.65831 54.1108 6.65831 54.3946 6.65831C54.5568 6.1409 54.7325 5.6371 54.8946 5.14692C54.9081 5.14692 54.9352 5.14692 54.9487 5.1333C55.1109 5.62348 55.273 6.12728 55.4487 6.64469C55.9758 6.64469 56.4893 6.64469 57.0164 6.64469C57.0299 6.67192 57.0299 6.68554 57.0434 6.71277C56.638 7.03956 56.192 7.3255 55.773 7.6659C55.9352 8.1697 56.0974 8.6735 56.246 9.1773C56.2325 9.19091 56.219 9.20453 56.2055 9.21814C55.7866 8.90497 55.3541 8.60542 54.9217 8.29225C54.4892 8.60542 54.0567 8.91859 53.6378 9.21814C53.6108 9.20453 53.5973 9.19091 53.5838 9.16368Z" fill="white"/>
<path d="M39.1101 8.29213C38.6777 8.60531 38.2587 8.91848 37.8263 9.23165C37.8127 9.21803 37.7857 9.20442 37.7722 9.1908C37.9344 8.70062 38.083 8.21044 38.2587 7.67941C37.8398 7.37985 37.4208 7.06668 37.0019 6.75351C37.0019 6.73989 37.0154 6.71266 37.0154 6.69905C37.5289 6.69905 38.0425 6.69905 38.5695 6.69905C38.7452 6.18163 38.9074 5.67783 39.0966 5.10596C39.3263 5.6506 39.4344 6.16802 39.6372 6.68543C40.1507 6.68543 40.6778 6.68543 41.1913 6.68543C41.2048 6.71266 41.2048 6.72628 41.2183 6.75351C40.7994 7.05307 40.394 7.36624 39.9615 7.67941C40.1237 8.18321 40.2858 8.687 40.4345 9.1908C40.421 9.20442 40.4075 9.21803 40.3804 9.23165C39.9615 8.91848 39.5426 8.60531 39.1101 8.29213Z" fill="white"/>
<path d="M57.8813 21.3091C58.4083 21.6086 58.7462 22.0444 58.9489 22.589C59.1381 23.0928 59.2192 23.6102 59.2732 24.1412C59.2867 24.2093 59.2867 24.2774 59.3408 24.3591C59.3678 24.2774 59.3949 24.1957 59.4219 24.1276C59.5976 23.6919 59.7462 23.2562 59.9354 22.8341C60.1652 22.3575 60.5165 22.0035 60.9895 21.7584C61.0841 21.704 61.2058 21.6767 61.3679 21.595C61.3139 21.9218 61.2733 22.1669 61.2193 22.4256C61.1247 22.8477 60.9895 23.2698 60.7733 23.6511C60.5165 24.1004 60.1652 24.4408 59.6787 24.6042C59.4354 24.6859 59.2192 24.6723 58.9894 24.5633C58.6245 24.3727 58.3408 24.0868 58.1651 23.7191C57.8137 22.9839 57.7596 22.1941 57.8272 21.3908C57.8407 21.3772 57.8542 21.3635 57.8813 21.3091Z" fill="white"/>
<path d="M32.6637 21.6224C33.0151 21.7177 33.2583 21.8811 33.4881 22.0717C33.8394 22.3713 34.0692 22.7389 34.2449 23.161C34.407 23.5559 34.5422 23.9507 34.6908 24.3865C34.7449 24.0324 34.7854 23.7193 34.8395 23.4061C34.9071 22.9704 35.0287 22.5619 35.2449 22.1806C35.4611 21.813 35.7449 21.4998 36.1504 21.282C36.1639 21.3773 36.1909 21.4454 36.1909 21.5135C36.2179 22.1262 36.1909 22.7389 35.9882 23.3244C35.826 23.8282 35.5422 24.2367 35.0827 24.509C34.8125 24.6724 34.5422 24.686 34.2449 24.5771C33.8124 24.4137 33.4881 24.1141 33.2583 23.7193C32.8934 23.0929 32.7313 22.4121 32.6637 21.6224Z" fill="white"/>
<path d="M34.3801 20.8463C34.4071 20.7101 34.4341 20.5876 34.4612 20.4786C34.6098 19.8387 34.9206 19.3349 35.5963 19.1306C35.745 19.0898 35.9072 19.0762 36.0693 19.0489C36.2315 20.0838 35.5828 21.2139 34.6774 21.5543C34.4476 21.636 34.2449 21.6224 34.0287 21.5135C33.6638 21.3228 33.4206 21.0233 33.2449 20.6693C32.9881 20.1655 32.907 19.6208 32.8665 19.0626C32.853 18.8311 32.8665 18.586 32.8665 18.3C32.9611 18.3409 33.0422 18.3681 33.1097 18.409C33.5422 18.6949 33.853 19.0762 34.0287 19.5664C34.1503 19.9612 34.2449 20.3833 34.3801 20.8463Z" fill="white"/>
<path d="M57.9083 19.09C58.8407 19.0355 59.3002 19.5121 59.6651 20.8737C59.7192 20.615 59.7597 20.3971 59.8138 20.1793C59.9489 19.621 60.1651 19.1036 60.5841 18.6951C60.7462 18.5317 60.9084 18.3956 61.1652 18.2866C61.2192 19.0764 61.1652 19.8116 60.8679 20.5061C60.7868 20.6831 60.6922 20.8601 60.5706 21.0099C59.9219 21.7724 59.5435 21.7315 58.8543 21.2686C58.3407 20.9282 58.138 20.3835 58.0164 19.8116C57.9488 19.5802 57.9353 19.3351 57.9083 19.09Z" fill="white"/>
<path d="M36.5693 16.9794C36.4342 17.4695 36.245 17.878 35.9477 18.232C35.5828 18.6678 35.0963 18.8448 34.5422 18.8584C34.4341 18.8584 34.2854 18.7903 34.2044 18.7086C33.7989 18.3682 33.5962 17.9189 33.5692 17.4015C33.5287 16.7206 33.7178 16.0943 33.9881 15.4543C34.0692 15.5224 34.1233 15.5497 34.1638 15.6041C34.5557 16.0943 34.7044 16.6526 34.6774 17.2789C34.6638 17.4423 34.6638 17.6193 34.6774 17.7963C35.0963 17.0747 35.7179 16.8023 36.5693 16.9794Z" fill="white"/>
<path d="M57.4624 16.9792C58.3408 16.8022 58.9625 17.0882 59.3814 17.8643C59.2868 16.9656 59.3544 16.1487 60.0436 15.427C60.3815 16.2304 60.6112 17.0065 60.395 17.8371C60.3004 18.2047 60.1112 18.5179 59.8004 18.7493C59.7058 18.8174 59.5571 18.8719 59.449 18.8719C58.8138 18.8447 58.2868 18.5859 57.9219 18.0277C57.7192 17.7145 57.557 17.3877 57.4624 16.9792Z" fill="white"/>
<path d="M56.4217 15.0323C56.746 14.8008 57.0704 14.7191 57.4353 14.8008C57.8001 14.8825 58.0434 15.1412 58.3002 15.3999C58.0704 14.5557 57.9758 13.7388 58.5299 12.9626C58.584 13.0307 58.638 13.0852 58.665 13.1397C58.8813 13.5345 59.0434 13.943 59.111 14.3923C59.1921 14.9234 59.084 15.4136 58.7461 15.822C58.665 15.9173 58.5569 15.999 58.4353 16.0399C57.9623 16.1897 57.5163 16.1352 57.1109 15.8357C56.8406 15.6178 56.5974 15.3591 56.4217 15.0323Z" fill="white"/>
<path d="M35.4611 12.949C36.0287 13.7523 35.9476 14.5693 35.7178 15.4271C35.826 15.3182 35.9341 15.2093 36.0422 15.1003C36.5152 14.6918 37.0963 14.6646 37.5693 15.0322C37.2044 15.8084 36.4611 16.2168 35.7178 16.0807C35.5016 16.0398 35.3395 15.9445 35.2043 15.7675C34.9881 15.468 34.8665 15.1276 34.8665 14.7599C34.8665 14.12 35.0962 13.5345 35.4611 12.949Z" fill="white"/>
<path d="M54.9756 13.3166C55.4891 12.7719 56.0432 12.7583 56.6649 13.0715C56.2324 12.4315 55.9891 11.7779 56.327 11.0291C56.8946 11.2741 57.4622 12.0639 57.4892 12.6494C57.5433 13.6706 56.7324 14.0382 56.0162 13.8748C55.6243 13.7931 55.2864 13.6025 54.9756 13.3166Z" fill="white"/>
<path d="M37.6775 10.9883C38.0289 11.778 37.7991 12.4316 37.3532 13.0716C37.6505 12.949 37.9343 12.8265 38.2451 12.8673C38.5559 12.9082 38.8127 13.0579 39.0559 13.3166C38.5965 13.6979 38.1235 13.9974 37.5018 13.9021C36.6099 13.766 36.4342 13.0171 36.5558 12.4316C36.7045 11.7916 37.1504 11.3695 37.6775 10.9883Z" fill="white"/>
<path d="M56.2461 12.7856C55.219 12.6359 54.5974 12.0095 54.1649 11.1245C55.0298 10.893 56.0974 11.7372 56.2461 12.7856Z" fill="white"/>
<path d="M37.7721 12.7855C37.8667 11.778 38.9208 10.9338 39.8398 11.1108C39.4208 12.0094 38.7992 12.6222 37.7721 12.7855Z" fill="white"/>
</svg>
