<svg width="25" height="25" viewBox="0 0 25 25" fill="none" xmlns="http://www.w3.org/2000/svg">
<path d="M12.5 0C14.3617 0 16.2234 0 18.0851 0C19.6049 0 21.0106 0.455927 22.2264 1.40578C23.5562 2.43161 24.4301 3.7614 24.81 5.39514C24.924 5.88906 25 6.38298 25 6.8769C25 10.6383 25 14.3997 25 18.1611C25 19.6808 24.5061 21.0106 23.5942 22.2264C22.9103 23.1383 21.9985 23.8602 20.9726 24.3541C20.3267 24.6581 19.6809 24.848 18.997 24.924C18.693 24.962 18.3511 25 18.0471 25C14.3237 25 10.6383 25 6.91489 25C5.50912 25 4.25532 24.5821 3.1155 23.8222C1.70973 22.8723 0.797872 21.5805 0.303951 19.9848C0.0759878 19.3769 0 18.731 0 18.1231C0 14.3617 0 10.6383 0 6.8769C0 5.31915 0.493921 3.91337 1.48176 2.65957C2.35562 1.55775 3.45745 0.759878 4.82523 0.341945C5.47112 0.113982 6.15501 0 6.8769 0C8.7386 0 10.6003 0 12.5 0ZM12.5 19.4149C16.2994 19.4149 19.4149 16.2994 19.4529 12.5C19.4529 8.66261 16.3754 5.58511 12.614 5.54711C8.70061 5.50912 5.58511 8.66261 5.58511 12.5C5.54711 16.3374 8.66261 19.4529 12.5 19.4149ZM19.4149 4.17933C19.4149 4.93921 20.0228 5.58511 20.8207 5.54711C21.5805 5.54711 22.1884 4.93921 22.1884 4.17933C22.1884 3.41945 21.5805 2.81155 20.8207 2.77356C20.0608 2.77356 19.4149 3.38146 19.4149 4.17933Z" fill="white"/>
<path d="M12.4999 16.6414C10.2203 16.6414 8.28262 14.7797 8.32062 12.3861C8.35861 10.1825 10.2203 8.24478 12.6139 8.28278C14.8176 8.32077 16.7173 10.1825 16.6793 12.5381C16.6033 14.8177 14.7416 16.6794 12.4999 16.6414Z" fill="white"/>
</svg>
