<svg width="25" height="25" viewBox="0 0 25 25" fill="none" xmlns="http://www.w3.org/2000/svg">
<path d="M18.0746 0H6.92542C3.08219 0 0 3.12024 0 6.92542V18.0746C0 21.9178 3.12024 25 6.92542 25H18.0746C21.9178 25 25 21.8798 25 18.0746V6.92542C25.0381 3.12024 21.9178 0 18.0746 0ZM10.312 17.656C10.1218 16.9711 9.93151 16.3242 9.7793 15.6773C9.62709 15.1446 9.51294 14.6119 9.36073 14.0791C9.32268 13.965 9.36073 13.9269 9.43683 13.8889C10.8447 12.9376 12.2146 11.9863 13.6225 11.0731C14.726 10.3501 15.7915 9.58904 16.895 8.86606C16.9711 8.82801 17.0091 8.78996 17.0852 8.78996C17.0852 8.78996 17.0852 8.82801 17.1233 8.82801C17.0852 8.86606 17.0472 8.90411 17.0091 8.94216C16.0959 9.7032 15.2207 10.4262 14.3075 11.1492C13.0518 12.1766 11.8341 13.204 10.5784 14.2314C10.5023 14.3075 10.4642 14.3836 10.4642 14.4977C10.5403 15.1826 10.5784 15.9056 10.6545 16.5906C10.6925 16.9711 10.7306 17.3135 10.7686 17.6941C10.7686 17.7702 10.7686 17.8463 10.7686 17.9224C10.4642 17.8843 10.3501 17.8463 10.312 17.656ZM10.9589 17.8463C10.9589 16.8569 10.9209 15.8676 10.8828 14.8402C11.5297 15.2968 12.1766 15.7154 12.8234 16.1339C12.4429 16.5906 11.1492 17.7702 10.9589 17.8463ZM19.7108 7.76256C19.4444 9.05632 19.14 10.3501 18.8737 11.6438C18.6073 12.9756 18.3029 14.3075 18.0365 15.6012C17.8843 16.3623 17.6941 17.1233 17.5419 17.8843C17.5419 17.9604 17.5038 18.0746 17.4658 18.1507C17.2755 18.6073 16.933 18.7595 16.5145 18.5312C16.3623 18.4551 16.21 18.379 16.0959 18.2648C14.4216 17.0091 12.7093 15.7915 11.035 14.5358C10.997 14.5358 10.997 14.4977 10.9589 14.4597C11.2633 14.1933 11.5297 13.9269 11.8341 13.6986C12.7093 12.8995 13.5845 12.1385 14.4597 11.3394C15.3349 10.5403 16.2481 9.74125 17.1233 8.94216C17.1613 8.90411 17.2374 8.86606 17.2755 8.78996C17.3516 8.6758 17.3135 8.5997 17.1994 8.5997C17.0472 8.5997 16.895 8.6758 16.7808 8.7519C16.4003 8.98021 16.0578 9.20852 15.6773 9.43683C14.3455 10.274 12.9756 11.1492 11.6438 11.9863C10.8447 12.481 10.0837 12.9756 9.28463 13.4703C9.17047 13.5464 9.09437 13.5464 8.98021 13.5084C8.21918 13.242 7.42009 13.0137 6.65906 12.7854C6.31659 12.6712 6.01218 12.5951 5.66971 12.481C5.47945 12.4049 5.32725 12.3288 5.28919 12.1005C5.25114 11.8721 5.40335 11.758 5.59361 11.6438C5.85997 11.4916 6.16438 11.3775 6.4688 11.2633C7.53425 10.8447 8.56164 10.4642 9.62709 10.0457C10.5403 9.7032 11.4916 9.32268 12.4049 8.98021C13.3181 8.63775 14.2314 8.25723 15.1065 7.91476C16.1339 7.53425 17.1613 7.11568 18.1507 6.73516C18.417 6.62101 18.6834 6.5449 18.9498 6.43075C19.4444 6.24049 19.863 6.50685 19.863 7.03957C19.7869 7.30594 19.7489 7.53425 19.7108 7.76256Z" fill="white"/>
</svg>
