<svg width="30" height="35" viewBox="0 0 30 35" fill="none" xmlns="http://www.w3.org/2000/svg">
<path d="M7.28575 13.9021C8.002 13.6706 8.67771 13.4528 9.35342 13.2349C11.1643 12.6494 12.9752 12.0775 14.7861 11.492C14.9483 11.4376 15.0834 11.4103 15.2591 11.4648C17.7322 12.2682 20.2188 13.0715 22.6919 13.8612C22.7189 13.8749 22.746 13.8885 22.8135 13.9021C22.8271 14.0383 22.8406 14.188 22.8541 14.3378C23.0568 17.2244 22.7189 20.0294 21.7054 22.7526C21.4621 23.4198 21.1513 24.0734 20.827 24.7133C20.0972 26.1158 19.0161 27.2051 17.6241 27.954C16.8403 28.3761 16.0159 28.7165 15.2186 29.0841C15.1105 29.1386 15.0159 29.1386 14.9077 29.0841C14.0023 28.7028 13.0968 28.3216 12.2455 27.8178C11.0292 27.0825 10.0697 26.1022 9.36693 24.8631C8.61014 23.5423 8.12363 22.1126 7.77226 20.6421C7.33981 18.8992 7.16412 17.1291 7.23169 15.3318C7.24521 14.8688 7.25872 14.3923 7.28575 13.9021Z" fill="#C42042"/>
<path d="M10.0021 34.2991C10.0021 33.9996 10.0021 33.7545 10.0021 33.4822C11.2319 33.4277 12.4346 33.3732 13.6374 33.3188C13.6374 33.3052 13.6509 33.2779 13.6509 33.2643C13.5968 33.2371 13.5293 33.1962 13.4752 33.1826C12.8806 32.9784 12.286 32.8014 11.6913 32.5835C10.5291 32.1614 9.42096 31.6168 8.38036 30.936C8.25874 30.8543 8.13711 30.7862 8.01548 30.7045C7.92088 30.7589 7.8398 30.8134 7.7452 30.8543C7.13706 31.1947 6.50189 31.4534 5.78564 31.4261C5.0829 31.4125 4.52882 31.0994 4.08286 30.5411C4.05583 30.5139 4.04231 30.473 4.00177 30.4049C5.10993 29.9147 6.2181 29.6288 7.39383 30.2007C7.35329 30.1326 7.31275 30.0645 7.25869 30.0101C6.98841 29.6833 6.74515 29.3429 6.58298 28.9344C6.32621 28.2672 6.32621 27.6 6.70461 26.9056C7.19112 27.423 7.58303 27.954 7.86683 28.5667C8.15063 29.1931 8.17765 29.8467 8.06954 30.5139C8.11008 30.5411 8.12359 30.5683 8.15062 30.5819C9.67772 31.3172 11.2048 32.0661 12.8265 32.5835C13.4752 32.7878 14.1374 32.9375 14.7996 33.0873C14.9483 33.1282 15.1239 33.1145 15.2726 33.0873C16.5159 32.8694 17.7052 32.4746 18.8539 31.9844C19.8944 31.5351 20.9215 31.0585 21.9891 30.5819C21.6648 29.0842 22.3811 27.9949 23.3271 26.9328C23.6784 27.5183 23.719 28.0902 23.5433 28.6893C23.3811 29.2748 23.0162 29.7377 22.6513 30.2279C23.2054 29.9556 23.7865 29.8603 24.3812 29.9284C24.9488 29.9964 25.4758 30.1598 26.0164 30.4185C25.9623 30.5002 25.9353 30.5819 25.8812 30.6364C25.2731 31.3308 24.5163 31.5623 23.6379 31.3853C23.0568 31.2764 22.5297 31.0177 22.0162 30.6909C21.1513 31.2627 20.2593 31.8074 19.2998 32.1886C18.3403 32.5699 17.3673 32.9103 16.3402 33.2915C17.597 33.4005 18.7998 33.4277 20.0161 33.4686C20.0161 33.7545 20.0161 33.9996 20.0161 34.2855C19.8945 34.2855 19.7863 34.2855 19.6782 34.2855C18.2052 34.2991 16.7592 34.0404 15.3267 33.6728C15.1104 33.6183 14.9077 33.6183 14.6915 33.6728C13.259 34.0268 11.813 34.2855 10.3399 34.2855C10.2318 34.2991 10.1237 34.2991 10.0021 34.2991Z" fill="#C42042"/>
<path d="M16.4889 4.35717C16.7727 5.25583 17.07 6.14088 17.3538 7.02593C17.3403 7.03955 17.3268 7.05316 17.2997 7.05316C16.5565 6.50852 15.8267 5.96387 15.0564 5.40561C14.3131 5.95025 13.5563 6.50852 12.813 7.05316C12.7995 7.03955 12.7725 7.03955 12.759 7.02593C13.0428 6.14088 13.3266 5.26945 13.6239 4.35717C12.8806 3.81252 12.1373 3.26787 11.394 2.72323C11.4076 2.70961 11.4076 2.68238 11.4211 2.66876C12.3265 2.66876 13.2455 2.66876 14.178 2.66876C14.4753 1.7701 14.7591 0.885049 15.0429 0C15.0564 0 15.0834 0 15.0969 0C15.3807 0.885049 15.6645 1.75648 15.9618 2.65515C16.8943 2.65515 17.8133 2.65515 18.7187 2.65515C18.7322 2.68238 18.7322 2.696 18.7458 2.72323C18.3944 3.00917 18.016 3.26787 17.6511 3.5402C17.2592 3.7989 16.8808 4.07123 16.4889 4.35717Z" fill="#C42042"/>
<path d="M5.25858 25.5031C5.73158 26.2383 6.08295 26.9464 6.19106 27.7633C6.25863 28.2671 6.16403 28.7573 5.97483 29.2339C5.89375 29.4381 5.75861 29.547 5.56941 29.6287C5.19101 29.7649 4.81262 29.7513 4.4207 29.6424C4.23151 29.5879 4.05582 29.5198 3.88014 29.4245C3.19091 29.0569 2.65034 28.5258 2.12329 27.8723C2.29898 27.8314 2.40709 27.7906 2.52872 27.7769C3.10983 27.7089 3.6504 27.8178 4.15042 28.1174C4.50179 28.3216 4.82613 28.5803 5.16398 28.8118C5.24507 28.8662 5.31264 28.9343 5.42075 28.9752C5.38021 28.8935 5.33967 28.8118 5.28561 28.7301C5.01533 28.2671 4.78559 27.7906 4.73153 27.2459C4.66396 26.606 4.82613 26.0477 5.25858 25.5031Z" fill="#C42042"/>
<path d="M24.5433 28.9888C24.9893 28.6756 25.3677 28.4033 25.7731 28.1446C26.2867 27.8314 26.8543 27.6952 27.4489 27.7633C27.5705 27.7769 27.6921 27.8178 27.8273 27.845C27.1516 28.7845 26.3542 29.5062 25.2055 29.7104C25.1244 29.724 25.0298 29.724 24.9488 29.724C24.3271 29.7104 24.0703 29.5062 23.9082 28.9071C23.746 28.308 23.7595 27.7089 23.9487 27.1097C24.1244 26.5515 24.3812 26.0477 24.719 25.5303C24.7866 25.5984 24.8406 25.6392 24.8812 25.6937C25.3001 26.3064 25.3677 26.9736 25.165 27.6544C25.0569 28.0084 24.8812 28.3352 24.719 28.662C24.692 28.7709 24.6244 28.8526 24.5433 28.9888Z" fill="#C42042"/>
<path d="M1.04211 24.8222C2.29893 24.863 2.98816 25.68 3.66387 26.6195C3.58278 26.2246 3.48818 25.8978 3.46115 25.5711C3.38007 24.8222 3.60981 24.1958 4.23146 23.7465C4.272 23.7193 4.32606 23.692 4.40715 23.6512C4.70446 24.4954 4.90717 25.3396 4.63689 26.211C4.58283 26.4016 4.47472 26.5923 4.38012 26.7693C4.06929 27.2731 3.7855 27.3956 3.20439 27.2322C2.88005 27.1369 2.58273 26.9735 2.32596 26.7557C1.82594 26.3472 1.27186 25.5166 1.04211 24.8222Z" fill="#C42042"/>
<path d="M25.638 23.6377C26.1516 23.9373 26.4353 24.373 26.5435 24.9176C26.6516 25.4623 26.5164 25.9661 26.4083 26.5107C26.4489 26.4699 26.5029 26.4154 26.5435 26.3745C26.8002 26.0886 27.0435 25.7754 27.3138 25.5031C27.6651 25.1627 28.0841 24.9585 28.5706 24.8631C28.6922 24.8359 28.8274 24.8495 28.976 24.8359C28.9625 24.904 28.949 24.9585 28.9355 24.9857C28.6922 25.5303 28.3949 26.0614 27.976 26.4835C27.7462 26.7149 27.4759 26.892 27.2057 27.069C27.0705 27.1643 26.8948 27.2051 26.7191 27.246C26.1786 27.3549 25.9624 27.2596 25.665 26.783C25.4083 26.3745 25.2731 25.9388 25.2731 25.4623C25.2596 24.8495 25.4083 24.2504 25.638 23.6377Z" fill="#C42042"/>
<path d="M21.5838 9.16368C21.7459 8.6735 21.8946 8.18332 22.0567 7.6659C21.6243 7.35273 21.2054 7.03956 20.7999 6.74001C20.7999 6.71277 20.7999 6.69916 20.8134 6.67193C21.0702 6.67193 21.327 6.65831 21.5973 6.65831C21.854 6.65831 22.1108 6.65831 22.3946 6.65831C22.5568 6.1409 22.7325 5.6371 22.8946 5.14692C22.9081 5.14692 22.9352 5.14692 22.9487 5.1333C23.1109 5.62348 23.273 6.12728 23.4487 6.64469C23.9758 6.64469 24.4893 6.64469 25.0164 6.64469C25.0299 6.67192 25.0299 6.68554 25.0434 6.71277C24.638 7.03956 24.192 7.3255 23.773 7.6659C23.9352 8.1697 24.0974 8.6735 24.246 9.1773C24.2325 9.19091 24.219 9.20453 24.2055 9.21814C23.7866 8.90497 23.3541 8.60542 22.9217 8.29225C22.4892 8.60542 22.0567 8.91859 21.6378 9.21814C21.6108 9.20453 21.5973 9.19091 21.5838 9.16368Z" fill="#C42042"/>
<path d="M7.11011 8.29213C6.67765 8.60531 6.25871 8.91848 5.82626 9.23165C5.81274 9.21803 5.78572 9.20442 5.7722 9.1908C5.93437 8.70062 6.08303 8.21044 6.25871 7.67941C5.83977 7.37985 5.42083 7.06668 5.00189 6.75351C5.00189 6.73989 5.01541 6.71266 5.01541 6.69905C5.52895 6.69905 6.04248 6.69905 6.56954 6.69905C6.74522 6.18163 6.90739 5.67783 7.09659 5.10596C7.32633 5.6506 7.43445 6.16802 7.63716 6.68543C8.1507 6.68543 8.67775 6.68543 9.19129 6.68543C9.2048 6.71266 9.2048 6.72628 9.21832 6.75351C8.79938 7.05307 8.39395 7.36624 7.9615 7.67941C8.12367 8.18321 8.28584 8.687 8.43449 9.1908C8.42098 9.20442 8.40747 9.21803 8.38044 9.23165C7.9615 8.91848 7.54256 8.60531 7.11011 8.29213Z" fill="#C42042"/>
<path d="M25.8813 21.3091C26.4083 21.6087 26.7462 22.0444 26.9489 22.5891C27.1381 23.0929 27.2192 23.6103 27.2732 24.1413C27.2867 24.2094 27.2867 24.2775 27.3408 24.3592C27.3678 24.2775 27.3949 24.1958 27.4219 24.1277C27.5976 23.692 27.7462 23.2563 27.9354 22.8342C28.1652 22.3576 28.5165 22.0036 28.9895 21.7585C29.0841 21.704 29.2058 21.6768 29.3679 21.5951C29.3139 21.9219 29.2733 22.167 29.2193 22.4257C29.1247 22.8478 28.9895 23.2699 28.7733 23.6511C28.5165 24.1005 28.1652 24.4409 27.6787 24.6042C27.4354 24.6859 27.2192 24.6723 26.9894 24.5634C26.6245 24.3728 26.3408 24.0868 26.1651 23.7192C25.8137 22.9839 25.7596 22.1942 25.8272 21.3908C25.8407 21.3772 25.8542 21.3636 25.8813 21.3091Z" fill="#C42042"/>
<path d="M0.663696 21.6224C1.01507 21.7178 1.25832 21.8812 1.48806 22.0718C1.83943 22.3713 2.06917 22.739 2.24486 23.1611C2.40703 23.5559 2.54217 23.9508 2.69082 24.3865C2.74488 24.0325 2.78542 23.7193 2.83948 23.4062C2.90705 22.9704 3.02868 22.562 3.24491 22.1807C3.46113 21.8131 3.74493 21.4999 4.15036 21.282C4.16387 21.3774 4.1909 21.4454 4.1909 21.5135C4.21793 22.1262 4.1909 22.739 3.98819 23.3245C3.82602 23.8283 3.54222 24.2367 3.08273 24.5091C2.81245 24.6725 2.54217 24.6861 2.24486 24.5772C1.8124 24.4138 1.48806 24.1142 1.25832 23.7193C0.893439 23.093 0.731267 22.4122 0.663696 21.6224Z" fill="#C42042"/>
<path d="M2.38007 20.8463C2.4071 20.7102 2.43413 20.5876 2.46115 20.4787C2.60981 19.8387 2.92064 19.3349 3.59635 19.1307C3.745 19.0898 3.90717 19.0762 4.06934 19.049C4.23151 20.0838 3.58283 21.214 2.67738 21.5544C2.44764 21.6361 2.24493 21.6224 2.0287 21.5135C1.66382 21.3229 1.42056 21.0233 1.24488 20.6693C0.988108 20.1655 0.907022 19.6209 0.86648 19.0626C0.852966 18.8311 0.86648 18.586 0.86648 18.3001C0.961079 18.341 1.04216 18.3682 1.10974 18.409C1.54219 18.695 1.85302 19.0762 2.0287 19.5664C2.15033 19.9613 2.24493 20.3834 2.38007 20.8463Z" fill="#C42042"/>
<path d="M25.9083 19.0899C26.8407 19.0354 27.3002 19.512 27.6651 20.8736C27.7192 20.6149 27.7597 20.397 27.8138 20.1791C27.9489 19.6209 28.1651 19.1035 28.5841 18.695C28.7462 18.5316 28.9084 18.3954 29.1652 18.2865C29.2192 19.0762 29.1652 19.8115 28.8679 20.5059C28.7868 20.6829 28.6922 20.86 28.5706 21.0097C27.9219 21.7722 27.5435 21.7314 26.8543 21.2684C26.3407 20.928 26.138 20.3834 26.0164 19.8115C25.9488 19.58 25.9353 19.3349 25.9083 19.0899Z" fill="#C42042"/>
<path d="M4.56934 16.9794C4.4342 17.4695 4.245 17.878 3.94769 18.232C3.58281 18.6678 3.0963 18.8448 2.54221 18.8584C2.4341 18.8584 2.28544 18.7903 2.20436 18.7086C1.79893 18.3682 1.59622 17.9189 1.56919 17.4015C1.52865 16.7206 1.71785 16.0943 1.98813 15.4543C2.06922 15.5224 2.12327 15.5497 2.16382 15.6041C2.55573 16.0943 2.70438 16.6526 2.67735 17.2789C2.66384 17.4423 2.66384 17.6193 2.67735 17.7963C3.09629 17.0747 3.71795 16.8023 4.56934 16.9794Z" fill="#C42042"/>
<path d="M25.4624 16.9794C26.3408 16.8024 26.9625 17.0883 27.3814 17.8644C27.2868 16.9657 27.3544 16.1488 28.0436 15.4271C28.3815 16.2305 28.6112 17.0066 28.395 17.8372C28.3004 18.2048 28.1112 18.518 27.8004 18.7495C27.7058 18.8175 27.5571 18.872 27.449 18.872C26.8138 18.8448 26.2868 18.5861 25.9219 18.0278C25.7192 17.7146 25.557 17.3878 25.4624 16.9794Z" fill="#C42042"/>
<path d="M24.4217 15.0322C24.746 14.8007 25.0704 14.719 25.4353 14.8007C25.8001 14.8824 26.0434 15.1411 26.3002 15.3998C26.0704 14.5556 25.9758 13.7386 26.5299 12.9625C26.584 13.0306 26.638 13.0851 26.665 13.1395C26.8813 13.5344 27.0434 13.9429 27.111 14.3922C27.1921 14.9232 27.084 15.4134 26.7461 15.8219C26.665 15.9172 26.5569 15.9989 26.4353 16.0398C25.9623 16.1896 25.5163 16.1351 25.1109 15.8355C24.8406 15.6177 24.5974 15.359 24.4217 15.0322Z" fill="#C42042"/>
<path d="M3.46108 12.9491C4.02867 13.7524 3.94759 14.5694 3.71785 15.4272C3.82596 15.3183 3.93407 15.2094 4.04219 15.1004C4.51518 14.692 5.0963 14.6647 5.56929 15.0324C5.20441 15.8085 4.46113 16.217 3.71785 16.0808C3.50162 16.04 3.33945 15.9446 3.20431 15.7676C2.98808 15.4681 2.86646 15.1277 2.86646 14.76C2.86646 14.1201 3.0962 13.5346 3.46108 12.9491Z" fill="#C42042"/>
<path d="M22.9756 13.3166C23.4891 12.7719 24.0432 12.7583 24.6649 13.0715C24.2324 12.4315 23.9891 11.7779 24.327 11.0291C24.8946 11.2741 25.4622 12.0639 25.4892 12.6494C25.5433 13.6706 24.7324 14.0382 24.0162 13.8748C23.6243 13.7931 23.2864 13.6025 22.9756 13.3166Z" fill="#C42042"/>
<path d="M5.6775 10.9883C6.02887 11.778 5.79913 12.4316 5.35316 13.0716C5.65047 12.949 5.93427 12.8265 6.2451 12.8673C6.55592 12.9082 6.81269 13.0579 7.05595 13.3166C6.59646 13.6979 6.12347 13.9974 5.50182 13.9021C4.60988 13.766 4.4342 13.0171 4.55582 12.4316C4.70448 11.7916 5.15045 11.3695 5.6775 10.9883Z" fill="#C42042"/>
<path d="M24.2461 12.7856C23.219 12.6358 22.5974 12.0094 22.1649 11.1244C23.0298 10.8929 24.0974 11.7371 24.2461 12.7856Z" fill="#C42042"/>
<path d="M5.77209 12.7855C5.86669 11.7779 6.9208 10.9337 7.83976 11.1107C7.42082 12.0094 6.79917 12.6221 5.77209 12.7855Z" fill="#C42042"/>
</svg>
